<svg xmlns="http://www.w3.org/2000/svg" width="1994" height="1072" viewBox="0 0 1994 1072">
<rect width="100%" height="100%" fill="#FBFBF9"/>
<style>text{font-family:Helvetica,Arial,sans-serif}.ref{font-size:11px;font-weight:600;fill:#14201F}.hd{font-size:23px;font-weight:700;fill:#14201F}.sub{font-size:13px;fill:#55655F}.dim{font-size:12px;fill:#55655F}.band{font-size:11.5px;font-weight:600;fill:#0C6F60;letter-spacing:0.06em}.ann{font-size:12.5px;fill:#5B43AD}.lg{font-size:13px;fill:#14201F}</style>
<rect x="587.5" y="62.0" width="273.0" height="91.0" fill="#FBFBF9" stroke="#6B4FBF" stroke-width="1.6" stroke-dasharray="5 3"/>
<text class="ann" x="870.5" y="149.0">antenna cutout 21 x 7 mm</text>
<rect x="74.0" y="400.0" width="1300.0" height="81.2"
     fill="#C2621A" fill-opacity="0.10" stroke="#C2621A" stroke-width="1.3" stroke-dasharray="7 4"/>
<text class="corr" x="1414.0" y="438.6">ROUTING CORRIDOR</text>
<text class="dim" x="1414.0" y="451.6">6.24 mm clear - the only route east</text>
<path d="M609.6,182.9 L562.8,182.9 L562.8,460.4 L880.0,460.4 L880.0,270.0" fill="none" stroke="#C2621A" stroke-width="2.4" stroke-dasharray="6 3" marker-end="url(#railArrow)"/>
<circle cx="609.6" cy="182.9" r="3.4" fill="#C2621A"/>
<text class="corr" x="555.0" y="175.9" text-anchor="end">+3V3_LOGIC</text>
<text class="dim" x="555.0" y="188.9" text-anchor="end">pad 2</text>
<text class="corr" x="893.0" y="309.0">analog island: FB1 + C10</text>
<text class="corr" x="893.0" y="322.0">belong HERE, not at the buck</text>
<rect x="74.0" y="688.9" width="1300.0" height="48.8"
     fill="url(#hatch)" stroke="#A32118" stroke-width="1.2"/>
<text class="no" x="1414.0" y="750.7">ESD RETURN &#8212; no analog rail here</text>
<text class="dim" x="1414.0" y="763.7">3.75 mm, and 12 motor traces cross it</text>
<rect x="74.0" y="725.0" width="1300.0" height="247.0" fill="#0C6F60" opacity="0.045"/>
<text class="band" x="1414.0" y="852.5">MOTOR CONNECTORS</text>
<rect x="74.0" y="678.2" width="1300.0" height="46.8" fill="#0C6F60" opacity="0.045"/>
<text class="band" x="1414.0" y="705.6">TVS ROW</text>
<rect x="74.0" y="497.5" width="1300.0" height="180.7" fill="#0C6F60" opacity="0.045"/>
<text class="band" x="1414.0" y="591.9">DRIVER BAND</text>
<path d="M74.0,62.0 L587.5,62.0 L587.5,153.0 L860.5,153.0 L860.5,62.0 L1374.0,62.0 L1374.0,972.0 L74.0,972.0 Z" fill="none" stroke="#14201F" stroke-width="2.4"/>
<rect x="686.0" y="601.4" width="19.6" height="39.1" fill="#5FAF9F" fill-opacity="0.30" stroke="#5FAF9F" stroke-width="1.5" rx="1.5"/>
<text class="ref" x="695.9" y="625.0" text-anchor="middle">RSB2</text>
<rect x="979.3" y="670.1" width="33.7" height="18.9" fill="#6B4FBF" fill-opacity="0.30" stroke="#6B4FBF" stroke-width="1.5" rx="1.5"/>
<text class="ref" x="996.5" y="666.1" text-anchor="middle">D50</text>
<rect x="1020.8" y="513.7" width="39.1" height="19.6" fill="#5FAF9F" fill-opacity="0.30" stroke="#5FAF9F" stroke-width="1.5" rx="1.5"/>
<text class="ref" x="1040.4" y="527.5" text-anchor="middle">C116</text>
<rect x="660.8" y="670.1" width="33.7" height="18.9" fill="#6B4FBF" fill-opacity="0.30" stroke="#6B4FBF" stroke-width="1.5" rx="1.5"/>
<text class="ref" x="678.0" y="666.1" text-anchor="middle">D46</text>
<rect x="821.2" y="737.7" width="157.9" height="247.7" fill="#2E6F9E" fill-opacity="0.30" stroke="#2E6F9E" stroke-width="1.5" rx="1.5"/>
<text class="ref" x="900.1" y="865.5" text-anchor="middle">J15</text>
<circle cx="132.5" cy="913.5" r="39.0" fill="none" stroke="#9AA3A8" stroke-width="1.6"/>
<circle cx="132.5" cy="913.5" r="20.8" fill="#9AA3A8" opacity="0.35"/>
<text class="ref" x="132.5" y="917.5" text-anchor="middle">H3</text>
<rect x="501.6" y="670.1" width="33.7" height="18.9" fill="#6B4FBF" fill-opacity="0.30" stroke="#6B4FBF" stroke-width="1.5" rx="1.5"/>
<text class="ref" x="518.7" y="666.1" text-anchor="middle">D44</text>
<rect x="579.6" y="670.1" width="33.7" height="18.9" fill="#6B4FBF" fill-opacity="0.30" stroke="#6B4FBF" stroke-width="1.5" rx="1.5"/>
<text class="ref" x="596.7" y="666.1" text-anchor="middle">D45</text>
<rect x="702.3" y="513.7" width="39.1" height="19.6" fill="#5FAF9F" fill-opacity="0.30" stroke="#5FAF9F" stroke-width="1.5" rx="1.5"/>
<text class="ref" x="721.9" y="527.5" text-anchor="middle">C115</text>
<rect x="260.3" y="481.2" width="39.1" height="19.6" fill="#5FAF9F" fill-opacity="0.30" stroke="#5FAF9F" stroke-width="1.5" rx="1.5"/>
<text class="ref" x="279.9" y="495.0" text-anchor="middle">C30</text>
<rect x="263.0" y="519.7" width="106.9" height="72.7" fill="#0C6F60" fill-opacity="0.30" stroke="#0C6F60" stroke-width="1.5" rx="1.5"/>
<text class="ref" x="316.4" y="560.0" text-anchor="middle">U20</text>
<rect x="342.3" y="670.1" width="33.7" height="18.9" fill="#6B4FBF" fill-opacity="0.30" stroke="#6B4FBF" stroke-width="1.5" rx="1.5"/>
<text class="ref" x="359.5" y="666.1" text-anchor="middle">D42</text>
<rect x="656.8" y="481.2" width="39.1" height="19.6" fill="#5FAF9F" fill-opacity="0.30" stroke="#5FAF9F" stroke-width="1.5" rx="1.5"/>
<text class="ref" x="676.4" y="495.0" text-anchor="middle">C33</text>
<circle cx="132.5" cy="120.5" r="39.0" fill="none" stroke="#9AA3A8" stroke-width="1.6"/>
<circle cx="132.5" cy="120.5" r="20.8" fill="#9AA3A8" opacity="0.35"/>
<text class="ref" x="132.5" y="124.5" text-anchor="middle">H1</text>
<rect x="1134.9" y="826.1" width="108.1" height="159.3" fill="#3E8CC4" fill-opacity="0.30" stroke="#3E8CC4" stroke-width="1.5" rx="1.5"/>
<text class="ref" x="1189.0" y="909.7" text-anchor="middle">J20</text>
<rect x="383.8" y="513.7" width="39.1" height="19.6" fill="#5FAF9F" fill-opacity="0.30" stroke="#5FAF9F" stroke-width="1.5" rx="1.5"/>
<text class="ref" x="403.4" y="527.5" text-anchor="middle">C114</text>
<rect x="975.3" y="481.2" width="39.1" height="19.6" fill="#5FAF9F" fill-opacity="0.30" stroke="#5FAF9F" stroke-width="1.5" rx="1.5"/>
<text class="ref" x="994.9" y="495.0" text-anchor="middle">C35</text>
<rect x="851.8" y="513.7" width="39.1" height="19.6" fill="#5FAF9F" fill-opacity="0.30" stroke="#5FAF9F" stroke-width="1.5" rx="1.5"/>
<text class="ref" x="871.4" y="527.5" text-anchor="middle">C112</text>
<circle cx="1307.0" cy="120.5" r="39.0" fill="none" stroke="#9AA3A8" stroke-width="1.6"/>
<circle cx="1307.0" cy="120.5" r="20.8" fill="#9AA3A8" opacity="0.35"/>
<text class="ref" x="1307.0" y="124.5" text-anchor="middle">H2</text>
<rect x="502.7" y="737.7" width="157.9" height="247.7" fill="#2E6F9E" fill-opacity="0.30" stroke="#2E6F9E" stroke-width="1.5" rx="1.5"/>
<text class="ref" x="581.6" y="865.5" text-anchor="middle">J13</text>
<rect x="607.0" y="68.5" width="234.0" height="331.5" fill="#6E7A80" fill-opacity="0.30" stroke="#6E7A80" stroke-width="1.5" rx="1.5"/>
<text class="ref" x="724.0" y="238.2" text-anchor="middle">U1</text>
<rect x="261.1" y="670.1" width="33.7" height="18.9" fill="#6B4FBF" fill-opacity="0.30" stroke="#6B4FBF" stroke-width="1.5" rx="1.5"/>
<text class="ref" x="278.2" y="666.1" text-anchor="middle">D41</text>
<rect x="183.1" y="670.1" width="33.7" height="18.9" fill="#6B4FBF" fill-opacity="0.30" stroke="#6B4FBF" stroke-width="1.5" rx="1.5"/>
<text class="ref" x="200.2" y="666.1" text-anchor="middle">D40</text>
<rect x="367.5" y="601.4" width="19.6" height="39.1" fill="#5FAF9F" fill-opacity="0.30" stroke="#5FAF9F" stroke-width="1.5" rx="1.5"/>
<text class="ref" x="377.4" y="625.0" text-anchor="middle">RSB1</text>
<rect x="581.5" y="519.7" width="106.9" height="72.7" fill="#0C6F60" fill-opacity="0.30" stroke="#0C6F60" stroke-width="1.5" rx="1.5"/>
<text class="ref" x="634.9" y="560.0" text-anchor="middle">U21</text>
<rect x="578.8" y="481.2" width="39.1" height="19.6" fill="#5FAF9F" fill-opacity="0.30" stroke="#5FAF9F" stroke-width="1.5" rx="1.5"/>
<text class="ref" x="598.4" y="495.0" text-anchor="middle">C32</text>
<rect x="980.4" y="737.7" width="158.0" height="247.7" fill="#2E6F9E" fill-opacity="0.30" stroke="#2E6F9E" stroke-width="1.5" rx="1.5"/>
<text class="ref" x="1059.4" y="865.5" text-anchor="middle">J16</text>
<rect x="898.1" y="670.1" width="33.7" height="18.9" fill="#6B4FBF" fill-opacity="0.30" stroke="#6B4FBF" stroke-width="1.5" rx="1.5"/>
<text class="ref" x="915.2" y="666.1" text-anchor="middle">D49</text>
<rect x="569.0" y="601.4" width="19.6" height="39.1" fill="#5FAF9F" fill-opacity="0.30" stroke="#5FAF9F" stroke-width="1.5" rx="1.5"/>
<text class="ref" x="578.9" y="625.0" text-anchor="middle">RSA2</text>
<rect x="250.5" y="601.4" width="19.6" height="39.1" fill="#5FAF9F" fill-opacity="0.30" stroke="#5FAF9F" stroke-width="1.5" rx="1.5"/>
<text class="ref" x="260.4" y="625.0" text-anchor="middle">RSA1</text>
<rect x="661.9" y="737.7" width="157.9" height="247.7" fill="#2E6F9E" fill-opacity="0.30" stroke="#2E6F9E" stroke-width="1.5" rx="1.5"/>
<text class="ref" x="740.9" y="865.5" text-anchor="middle">J14</text>
<rect x="338.3" y="481.2" width="39.1" height="19.6" fill="#5FAF9F" fill-opacity="0.30" stroke="#5FAF9F" stroke-width="1.5" rx="1.5"/>
<text class="ref" x="357.9" y="495.0" text-anchor="middle">C31</text>
<rect x="214.8" y="513.7" width="39.1" height="19.6" fill="#5FAF9F" fill-opacity="0.30" stroke="#5FAF9F" stroke-width="1.5" rx="1.5"/>
<text class="ref" x="234.4" y="527.5" text-anchor="middle">C110</text>
<rect x="820.1" y="670.1" width="33.7" height="18.9" fill="#6B4FBF" fill-opacity="0.30" stroke="#6B4FBF" stroke-width="1.5" rx="1.5"/>
<text class="ref" x="837.2" y="666.1" text-anchor="middle">D48</text>
<rect x="420.3" y="670.1" width="33.7" height="18.9" fill="#6B4FBF" fill-opacity="0.30" stroke="#6B4FBF" stroke-width="1.5" rx="1.5"/>
<text class="ref" x="437.5" y="666.1" text-anchor="middle">D43</text>
<rect x="74.7" y="382.5" width="123.1" height="139.0" fill="#3E8CC4" fill-opacity="0.30" stroke="#3E8CC4" stroke-width="1.5" rx="1.5"/>
<text class="ref" x="136.3" y="456.0" text-anchor="middle">J1</text>
<rect x="1057.3" y="670.1" width="33.7" height="18.9" fill="#6B4FBF" fill-opacity="0.30" stroke="#6B4FBF" stroke-width="1.5" rx="1.5"/>
<text class="ref" x="1074.5" y="666.1" text-anchor="middle">D51</text>
<rect x="897.3" y="481.2" width="39.1" height="19.6" fill="#5FAF9F" fill-opacity="0.30" stroke="#5FAF9F" stroke-width="1.5" rx="1.5"/>
<text class="ref" x="916.9" y="495.0" text-anchor="middle">C34</text>
<circle cx="1307.0" cy="913.5" r="39.0" fill="none" stroke="#9AA3A8" stroke-width="1.6"/>
<circle cx="1307.0" cy="913.5" r="20.8" fill="#9AA3A8" opacity="0.35"/>
<text class="ref" x="1307.0" y="917.5" text-anchor="middle">H4</text>
<rect x="533.3" y="513.7" width="39.1" height="19.6" fill="#5FAF9F" fill-opacity="0.30" stroke="#5FAF9F" stroke-width="1.5" rx="1.5"/>
<text class="ref" x="552.9" y="527.5" text-anchor="middle">C111</text>
<rect x="425.7" y="501.7" width="105.6" height="108.5" fill="#B07A1E" fill-opacity="0.30" stroke="#B07A1E" stroke-width="1.5" rx="1.5"/>
<text class="ref" x="478.5" y="560.0" text-anchor="middle">U24</text>
<rect x="184.2" y="737.7" width="158.0" height="247.7" fill="#2E6F9E" fill-opacity="0.30" stroke="#2E6F9E" stroke-width="1.5" rx="1.5"/>
<text class="ref" x="263.1" y="865.5" text-anchor="middle">J11</text>
<rect x="900.0" y="519.7" width="106.9" height="72.7" fill="#0C6F60" fill-opacity="0.30" stroke="#0C6F60" stroke-width="1.5" rx="1.5"/>
<text class="ref" x="953.4" y="560.0" text-anchor="middle">U22</text>
<rect x="738.8" y="670.1" width="33.7" height="18.9" fill="#6B4FBF" fill-opacity="0.30" stroke="#6B4FBF" stroke-width="1.5" rx="1.5"/>
<text class="ref" x="756.0" y="666.1" text-anchor="middle">D47</text>
<rect x="343.4" y="737.7" width="157.9" height="247.7" fill="#2E6F9E" fill-opacity="0.30" stroke="#2E6F9E" stroke-width="1.5" rx="1.5"/>
<text class="ref" x="422.4" y="865.5" text-anchor="middle">J12</text>
<rect x="1004.5" y="601.4" width="19.6" height="39.1" fill="#5FAF9F" fill-opacity="0.30" stroke="#5FAF9F" stroke-width="1.5" rx="1.5"/>
<text class="ref" x="1014.4" y="625.0" text-anchor="middle">RSB3</text>
<rect x="887.5" y="601.4" width="19.6" height="39.1" fill="#5FAF9F" fill-opacity="0.30" stroke="#5FAF9F" stroke-width="1.5" rx="1.5"/>
<text class="ref" x="897.4" y="625.0" text-anchor="middle">RSA3</text>
<text class="hd" x="74" y="32">Lune V6 rev3.2 &#8212; component placement floorplan</text>
<text class="sub" x="74" y="51">100 x 70 mm (21 x 7 mm antenna cutout) &#183; 2 layers &#183; 47 of 144 parts anchored by rule &#183; unrouted</text>
<line x1="74.0" y1="1010.0" x2="1374.0" y2="1010.0" stroke="#55655F" stroke-width="1"/>
<text class="dim" x="724.0" y="1028.0" text-anchor="middle">100.0 mm</text>
<line x1="1396.0" y1="62.0" x2="1396.0" y2="972.0" stroke="#55655F" stroke-width="1"/>
<text class="dim" x="1390.0" y="517.0" text-anchor="end" transform="rotate(-90 1390.0 517.0)">70.0 mm</text>
<text class="dim" x="74.0" y="1050.0">South edge: M3 6.0 + 6x RJ9 73.35 (12.25 mm pitch) + 1-wire 8.0 + M3 6.0 = 99.35 mm</text>
<text class="dim" x="74.0" y="1066.0">RJ9 and 1-wire project +1.03 mm south &#183; USB-C flush on west &#183; M3 rectangle 90.35 x 61 mm</text>
<rect x="1564.0" y="68.0" width="15" height="12" fill="#2E6F9E" fill-opacity="0.30" stroke="#2E6F9E" stroke-width="1.4"/>
<text class="lg" x="1587.0" y="79.0">Motor connectors (RJ9)</text>
<rect x="1564.0" y="92.0" width="15" height="12" fill="#3E8CC4" fill-opacity="0.30" stroke="#3E8CC4" stroke-width="1.4"/>
<text class="lg" x="1587.0" y="103.0">USB-C (west) / 1-wire (south)</text>
<rect x="1564.0" y="116.0" width="15" height="12" fill="#6B4FBF" fill-opacity="0.30" stroke="#6B4FBF" stroke-width="1.4"/>
<text class="lg" x="1587.0" y="127.0">ESD TVS / antenna cutout</text>
<rect x="1564.0" y="140.0" width="15" height="12" fill="#0C6F60" fill-opacity="0.30" stroke="#0C6F60" stroke-width="1.4"/>
<text class="lg" x="1587.0" y="151.0">DRV8411 drivers</text>
<rect x="1564.0" y="164.0" width="15" height="12" fill="#5FAF9F" fill-opacity="0.30" stroke="#5FAF9F" stroke-width="1.4"/>
<text class="lg" x="1587.0" y="175.0">Driver passives / xISEN</text>
<rect x="1564.0" y="188.0" width="15" height="12" fill="#6E7A80" fill-opacity="0.30" stroke="#6E7A80" stroke-width="1.4"/>
<text class="lg" x="1587.0" y="199.0">ESP32-S3 module</text>
<rect x="1564.0" y="212.0" width="15" height="12" fill="#B07A1E" fill-opacity="0.30" stroke="#B07A1E" stroke-width="1.4"/>
<text class="lg" x="1587.0" y="223.0">74HC4514 one-hot decoder</text>
<rect x="1564.0" y="236.0" width="15" height="12" fill="#9AA3A8" fill-opacity="0.30" stroke="#9AA3A8" stroke-width="1.4"/>
<text class="lg" x="1587.0" y="247.0">M3 mounting (3.2 mm drill)</text>
<text class="sub" x="1564.0" y="286.0">Not shown: 97 parts parked off-board,</text>
<text class="sub" x="1564.0" y="304.0">awaiting manual placement.</text>
<text class="sub" x="1564.0" y="340.0">The analog island belongs north of the</text>
<text class="sub" x="1564.0" y="358.0">driver band, clear of the ESD return path.</text>
</svg>